<?xml version="1.0" encoding="utf-8"?>
<!-- Generator: Adobe Illustrator 14.0.0, SVG Export Plug-In . SVG Version: 6.00 Build 43363)  -->
<!DOCTYPE svg PUBLIC "-//W3C//DTD SVG 1.1//EN" "http://www.w3.org/Graphics/SVG/1.1/DTD/svg11.dtd">
<svg version="1.1" id="Ebene_1" xmlns="http://www.w3.org/2000/svg" xmlns:xlink="http://www.w3.org/1999/xlink" x="0px" y="0px"
	 width="1024px" height="313px" viewBox="0 0 1024 313" enable-background="new 0 0 1024 313" xml:space="preserve">
<polyline fill="#E2001A" points="121.143,223.435 226.132,223.435 226.132,41.857 121.143,223.435 "/>
<polyline fill="#006AB3" points="42.842,223.423 170.255,1 229.751,1 102.338,223.423 42.842,223.423 "/>
<polyline fill="#006AB3" points="271.803,46.01 307.413,46.01 307.413,122.319 371.507,46.01 415.26,46.01 342.257,129.693 
	418.309,223.549 371.763,223.549 307.92,141.14 307.413,141.14 307.413,223.549 271.803,223.549 271.803,46.01 "/>
<polyline fill="#006AB3" points="431.287,46.01 466.898,46.01 466.898,117.739 538.114,117.739 538.114,46.01 573.726,46.01 
	573.726,223.549 538.114,223.549 538.114,145.715 466.898,145.715 466.898,223.549 431.287,223.549 431.287,46.01 "/>
<g>
	<defs>
		<rect id="SVGID_1_" x="0.022" y="1" width="1024" height="312.393"/>
	</defs>
	<clipPath id="SVGID_2_">
		<use xlink:href="#SVGID_1_"  overflow="visible"/>
	</clipPath>
	<path clip-path="url(#SVGID_2_)" fill="#006AB3" d="M702.675,78.566c-11.191-4.831-23.657-7.63-36.118-7.63
		c-12.209,0-27.98,5.342-27.98,24.67c0,30.781,77.833,17.809,77.833,77.327c0,38.917-30.775,53.67-66.642,53.67
		c-19.328,0-27.977-2.543-45.528-6.867l3.306-32.05c12.21,6.611,26.2,10.936,40.191,10.936c13.479,0,31.537-6.867,31.537-22.89
		c0-33.83-77.834-19.839-77.834-78.601c0-39.679,30.775-54.176,62.068-54.176c15.259,0,29.5,2.037,42.473,6.361L702.675,78.566"/>
	<polyline clip-path="url(#SVGID_2_)" fill="#E2001A" points="0,223.423 102.623,45.874 127.896,45.874 25.278,223.423 0,223.423 	
		"/>
</g>
<polyline points="271.717,258.414 290.373,258.414 290.373,262.954 276.979,262.954 276.979,276.229 289.713,276.229 
	289.713,280.769 276.979,280.769 276.979,300.142 271.717,300.142 271.717,258.414 "/>
<path d="M293.667,257.094h5.502v5.98h-5.502V257.094z M293.906,269.65h5.024v30.491h-5.024V269.65z"/>
<rect x="306.577" y="255.302" width="5.023" height="44.84"/>
<rect x="319.254" y="255.302" width="5.018" height="44.84"/>
<path d="M331.686,257.094h5.502v5.98h-5.502V257.094z M331.924,269.65h5.024v30.491h-5.024V269.65z"/>
<g>
	<defs>
		<rect id="SVGID_3_" x="0.022" y="1" width="1024" height="312.393"/>
	</defs>
	<clipPath id="SVGID_4_">
		<use xlink:href="#SVGID_3_"  overflow="visible"/>
	</clipPath>
	<path clip-path="url(#SVGID_4_)" d="M344.117,276.229c0-2.214-0.177-4.427-0.239-6.578h4.848l0.177,4.541h0.119
		c1.615-3.465,4.188-4.956,7.715-4.956c5.32,0,8.904,3.044,8.904,9.741v21.165h-5.023v-19.669c0-4.842-1.793-6.936-5.019-6.936
		c-3.943,0-6.458,2.748-6.458,8.25v18.354h-5.023V276.229"/>
	<path clip-path="url(#SVGID_4_)" d="M394.276,301.455c0,8.427-6.338,11.955-13.035,11.955c-2.571,0-6.69-0.957-8.904-1.85
		l0.239-5.081c2.15,1.434,5.615,2.629,8.369,2.629c6.156,0,8.546-3.647,8.546-8.91v-4.779h-0.119
		c-1.969,3.465-4.66,5.138-8.011,5.138c-6.276,0-10.521-5.138-10.521-15.664c0-10.52,4.244-15.657,11.061-15.657
		c3.05,0,5.798,1.912,7.471,4.837h0.119l0.183-4.422h4.842c-0.063,1.793-0.239,3.705-0.239,5.559V301.455 M382.562,296.494
		c4.603,0,6.696-3.948,6.696-11.602c0-7.652-2.094-11.595-6.696-11.595c-4.608,0-6.696,3.942-6.696,11.595
		C375.865,292.546,377.953,296.494,382.562,296.494z"/>
</g>
<path d="M415.436,271.744c2.516-1.615,5.621-2.509,8.608-2.509c4.483,0,7.175,1.912,8.131,2.868c1.319,1.314,2.628,3.168,2.628,7.47
	v15.903c0,1.791,0.126,3.59,0.245,4.665h-4.546l-0.302-4.125h-0.113c-1.377,2.327-3.892,4.54-8.552,4.54
	c-5.023,0-8.791-2.93-8.791-8.785c0-5.922,3.887-10.286,14.35-10.286h2.93v-1.371c0-2.276-0.176-3.591-1.132-4.905
	c-1.019-1.371-2.992-1.911-5.087-1.911c-3.105,0-6.093,1.257-7.828,3.169L415.436,271.744 M430.023,285.195
	c-0.898-0.12-2.15-0.12-3.527-0.12c-5.917,0-8.728,2.811-8.728,6.339c0,3.226,1.673,5.319,5.138,5.319
	c4.369,0,7.117-3.528,7.117-7.716V285.195z"/>
<path d="M441.323,276.229c0-2.214-0.182-4.427-0.239-6.578h4.843l0.182,4.541h0.114c1.615-3.465,4.188-4.956,7.715-4.956
	c5.319,0,8.91,3.044,8.91,9.741v21.165h-5.024v-19.669c0-4.842-1.792-6.936-5.024-6.936c-3.942,0-6.451,2.748-6.451,8.25v18.354
	h-5.024V276.229"/>
<path d="M491.478,294.52c0,1.855,0.182,3.768,0.238,5.622h-4.842l-0.176-4.483h-0.12c-1.319,2.39-3.59,4.898-8.011,4.898
	c-6.275,0-10.52-5.138-10.52-15.664c0-10.52,4.244-15.657,10.52-15.657c3.465,0,5.741,1.372,7.767,4.603h0.125v-18.536h5.019V294.52
	 M479.763,273.298c-4.604,0-6.697,3.942-6.697,11.595c0,7.653,2.094,11.602,6.697,11.602c4.603,0,6.696-3.948,6.696-11.602
	C486.459,277.24,484.365,273.298,479.763,273.298z"/>
<path d="M512.403,258.414h10.042c4.188,0,6.816,1.132,9.023,3.227c2.094,2.03,3.295,4.961,3.295,8.607
	c0,8.131-4.729,12.438-13.575,12.438h-3.528v17.456h-5.257V258.414 M517.66,278.379h2.874c6.395,0,8.728-2.987,8.728-7.652
	c0-5.741-3.231-8.012-8.608-8.012h-2.993V278.379z"/>
<path d="M537.512,271.744c2.509-1.615,5.621-2.509,8.608-2.509c4.483,0,7.175,1.912,8.13,2.868c1.314,1.314,2.635,3.168,2.635,7.47
	v15.903c0,1.791,0.113,3.59,0.238,4.665h-4.545l-0.297-4.125h-0.119c-1.377,2.327-3.886,4.54-8.551,4.54
	c-5.024,0-8.785-2.93-8.785-8.785c0-5.922,3.88-10.286,14.344-10.286h2.93v-1.371c0-2.276-0.182-3.591-1.138-4.905
	c-1.013-1.371-2.987-1.911-5.081-1.911c-3.106,0-6.1,1.257-7.829,3.169L537.512,271.744 M552.1,285.195
	c-0.898-0.12-2.15-0.12-3.527-0.12c-5.917,0-8.728,2.811-8.728,6.339c0,3.226,1.673,5.319,5.143,5.319
	c4.364,0,7.112-3.528,7.112-7.716V285.195z"/>
<path d="M581.333,274.971c-1.735-0.956-3.471-1.434-5.798-1.434c-4.904,0-8.369,3.408-8.369,11.658
	c0,7.055,3.345,11.061,8.25,11.061c2.389,0,4.42-0.717,6.155-1.616l0.239,4.603c-1.496,0.66-4.188,1.314-6.395,1.314
	c-9.087,0-13.514-6.754-13.514-15.361c0-9.866,5.144-15.96,13.633-15.96c2.088,0,4.421,0.415,6.036,1.189L581.333,274.971"/>
<polyline points="601.542,269.65 607.396,269.65 595.443,283.283 608.472,300.142 602.253,300.142 591.198,284.773 591.079,284.773 
	591.079,300.142 586.055,300.142 586.055,255.302 591.079,255.302 591.079,281.906 601.542,269.65 "/>
<g>
	<defs>
		<rect id="SVGID_5_" x="0.022" y="1" width="1024" height="312.393"/>
	</defs>
	<clipPath id="SVGID_6_">
		<use xlink:href="#SVGID_5_"  overflow="visible"/>
	</clipPath>
	<path clip-path="url(#SVGID_6_)" d="M613.194,271.744c2.509-1.615,5.621-2.509,8.608-2.509c4.483,0,7.175,1.912,8.131,2.868
		c1.313,1.314,2.634,3.168,2.634,7.47v15.903c0,1.791,0.114,3.59,0.239,4.665h-4.546l-0.296-4.125h-0.125
		c-1.371,2.327-3.887,4.54-8.546,4.54c-5.024,0-8.791-2.93-8.791-8.785c0-5.922,3.887-10.286,14.35-10.286h2.93v-1.371
		c0-2.276-0.182-3.591-1.138-4.905c-1.013-1.371-2.987-1.911-5.081-1.911c-3.106,0-6.099,1.257-7.828,3.169L613.194,271.744
		 M627.782,285.195c-0.898-0.12-2.15-0.12-3.527-0.12c-5.917,0-8.728,2.811-8.728,6.339c0,3.226,1.673,5.319,5.144,5.319
		c4.363,0,7.111-3.528,7.111-7.716V285.195z"/>
	<path clip-path="url(#SVGID_6_)" d="M661.021,301.455c0,8.427-6.339,11.955-13.035,11.955c-2.572,0-6.697-0.957-8.904-1.85
		l0.239-5.081c2.15,1.434,5.615,2.629,8.369,2.629c6.156,0,8.546-3.647,8.546-8.91v-4.779h-0.119
		c-1.969,3.465-4.66,5.138-8.012,5.138c-6.275,0-10.52-5.138-10.52-15.664c0-10.52,4.244-15.657,11.061-15.657
		c3.049,0,5.797,1.912,7.471,4.837h0.119l0.182-4.422h4.842c-0.057,1.793-0.238,3.705-0.238,5.559V301.455 M649.307,296.494
		c4.603,0,6.69-3.948,6.69-11.602c0-7.652-2.088-11.595-6.69-11.595c-4.609,0-6.697,3.942-6.697,11.595
		C642.609,292.546,644.697,296.494,649.307,296.494z"/>
</g>
<path d="M667.473,257.094h5.502v5.98h-5.502V257.094z M667.712,269.65h5.024v30.491h-5.024V269.65z"/>
<g>
	<defs>
		<rect id="SVGID_7_" x="0.022" y="1" width="1024" height="312.393"/>
	</defs>
	<clipPath id="SVGID_8_">
		<use xlink:href="#SVGID_7_"  overflow="visible"/>
	</clipPath>
	<path clip-path="url(#SVGID_8_)" d="M679.91,276.229c0-2.214-0.182-4.427-0.238-6.578h4.842l0.182,4.541h0.119
		c1.61-3.465,4.183-4.956,7.71-4.956c5.325,0,8.91,3.044,8.91,9.741v21.165h-5.024v-19.669c0-4.842-1.792-6.936-5.023-6.936
		c-3.943,0-6.452,2.748-6.452,8.25v18.354h-5.024V276.229"/>
	<path clip-path="url(#SVGID_8_)" d="M730.07,301.455c0,8.427-6.339,11.955-13.035,11.955c-2.572,0-6.697-0.957-8.91-1.85
		l0.239-5.081c2.156,1.434,5.621,2.629,8.369,2.629c6.162,0,8.552-3.647,8.552-8.91v-4.779h-0.12
		c-1.974,3.465-4.665,5.138-8.011,5.138c-6.281,0-10.52-5.138-10.52-15.664c0-10.52,4.238-15.657,11.061-15.657
		c3.044,0,5.797,1.912,7.47,4.837h0.12l0.182-4.422h4.842c-0.063,1.793-0.238,3.705-0.238,5.559V301.455 M718.35,296.494
		c4.603,0,6.696-3.948,6.696-11.602c0-7.652-2.094-11.595-6.696-11.595c-4.604,0-6.697,3.942-6.697,11.595
		C711.652,292.546,713.746,296.494,718.35,296.494z"/>
</g>
<rect x="746.388" y="281.309" width="29.888" height="4.063"/>
<polyline points="786.682,258.414 792.184,258.414 798.999,292.25 799.119,292.25 806.589,258.414 813.286,258.414 820.762,292.25 
	820.876,292.25 828.17,258.414 833.193,258.414 824.107,300.142 817.889,300.142 809.997,264.389 809.878,264.389 801.986,300.142 
	795.768,300.142 786.682,258.414 "/>
<path d="M846.473,269.235c8.068,0,12.256,6.094,12.256,15.657c0,9.57-4.188,15.664-12.256,15.664
	c-8.067,0-12.255-6.094-12.255-15.664C834.218,275.329,838.405,269.235,846.473,269.235 M846.473,296.494
	c4.785,0,6.998-3.948,6.998-11.602c0-7.652-2.213-11.595-6.998-11.595c-4.784,0-6.992,3.942-6.992,11.595
	C839.48,292.546,841.688,296.494,846.473,296.494z"/>
<path d="M863.929,276.229c0-2.214-0.183-4.427-0.239-6.578h4.842l0.183,4.785h0.119c1.616-3.709,4.188-5.2,8.665-5.2v4.956
	c-0.597-0.119-1.251-0.177-1.911-0.177c-3.886,0-6.634,3.346-6.634,9.985v16.142h-5.024V276.229"/>
<rect x="881.504" y="255.302" width="5.023" height="44.84"/>
<path d="M915.642,294.52c0,1.855,0.176,3.768,0.238,5.622h-4.842l-0.182-4.483h-0.119c-1.314,2.39-3.591,4.898-8.012,4.898
	c-6.275,0-10.52-5.138-10.52-15.664c0-10.52,4.244-15.657,10.52-15.657c3.466,0,5.741,1.372,7.772,4.603h0.119v-18.536h5.024V294.52
	 M903.921,273.298c-4.603,0-6.696,3.942-6.696,11.595c0,7.653,2.094,11.602,6.696,11.602s6.696-3.948,6.696-11.602
	C910.617,277.24,908.523,273.298,903.921,273.298z"/>
<polyline points="950.672,300.142 944.932,300.142 938.536,274.373 938.417,274.373 932.557,300.142 926.815,300.142 
	918.748,269.65 924.005,269.65 929.803,295.117 929.928,295.117 935.726,269.65 941.705,269.65 947.742,295.117 947.861,295.117 
	953.603,269.65 958.62,269.65 950.672,300.142 "/>
<path d="M962.449,257.094h5.496v5.98h-5.496V257.094z M962.688,269.65h5.019v30.491h-5.019V269.65z"/>
<path d="M996.82,294.52c0,1.855,0.182,3.768,0.239,5.622h-4.842l-0.183-4.483h-0.113c-1.314,2.39-3.591,4.898-8.017,4.898
	c-6.276,0-10.521-5.138-10.521-15.664c0-10.52,4.244-15.657,10.521-15.657c3.471,0,5.74,1.372,7.777,4.603h0.114v-18.536h5.023
	V294.52 M985.105,273.298c-4.603,0-6.696,3.942-6.696,11.595c0,7.653,2.094,11.602,6.696,11.602s6.691-3.948,6.691-11.602
	C991.797,277.24,989.708,273.298,985.105,273.298z"/>
<path d="M1006.8,286.39c0,7.056,2.754,10.344,8.313,10.344c2.515,0,5.263-1.257,6.998-2.515l0.239,4.546
	c-2.396,1.138-5.502,1.792-8.552,1.792c-8.073,0-12.255-6.094-12.255-15.664c0-9.563,4.182-15.657,11.777-15.657
	c6.873,0,10.702,5.496,10.702,14.463v2.691H1006.8 M1018.998,282.561c0-6.332-1.974-9.502-5.979-9.502
	c-3.226,0-6.094,2.391-6.219,9.502H1018.998z"/>
</svg>
